<svg xmlns="http://www.w3.org/2000/svg" viewBox="0 0 549.16 224.68"><defs><style>.a{fill:#fff;}</style></defs><path d="M314.66,86.61a19.87,19.87,0,0,1,.14,2.26c-.71,10-1.85,19.91-2,29.87-.09,5.54.18,11.33,2.85,16.57,1.17,2.3,2.51,4.33,5.41,4.79,3.68-.83,5.08-4,6.48-7,1.94-4,3-8.51,5.24-12.36,3.76-6.58,4.64-13.59,4.83-20.93.23-9,5.91-14.84,12.52-20,1.58-1.22,3.29-1.6,5.43.59-1.27,7-2.62,14.4-4.18,23,2.1-2.64,3.36-4.38,4.79-6,3.9-4.38,8.49-7.45,14.65-7.33,6.39.12,10.79,3.34,13.05,9.1A31.29,31.29,0,0,1,385.93,115c-1.74,13.67-1.72,13.67-8.59,26.82a18.79,18.79,0,0,0,9.91-6.61c6-7.43,10.9-15.46,11.63-25.4.31-4.3,1.16-8.57,1.36-12.88a13.19,13.19,0,0,1,3.57-9,97.37,97.37,0,0,1,8.76-8.12c.95-.76,2.82-.37,5.23-.6-.88,4.53-1.6,8.06-2.24,11.6s-1.2,7.16-2,12c1.48-1.61,2.1-2.41,2.85-3.08,3-2.62,5.63-5.82,9-7.67,9-4.94,19.35,0,21.52,10.39a49.67,49.67,0,0,1-5.12,34.77c-.77,1.41-1.57,2.79-2.83,5a22.6,22.6,0,0,0,9.67-6.39c6.48-7.59,11.64-15.86,11.61-26.31,0-9,4.25-15.47,11.33-20.41a58.28,58.28,0,0,1,5.55-3c-.51,6.36-1,11.76-1.36,17.16-.57,9.12-1.45,18.27.58,27.32a20.91,20.91,0,0,0,2.08,5.57c2.8,5.07,6.32,5.28,9.37.46a61.09,61.09,0,0,0,4.24-8.44c2.25-5.17,4.16-10.49,6.52-15.6a53.13,53.13,0,0,1,16.78-20.1,23.26,23.26,0,0,1,4.26-2.56c8.08-3.79,15.29.73,15.52,9.7.14,5.57-2.28,10.33-5,15-4.41,7.55-10.33,13.84-16.77,19.67-.73.65-1.43,1.33-2.08,1.93,2.84,9,10.56,11.61,17.89,6.14,5.07-3.79,8.27-9,11-14.57,1.48-3,2.75-6,4.34-8.95a27,27,0,0,1,3.11-3.87l1.1.47c.08,1.21.57,2.58.17,3.61-4.34,11-9,21.86-17.88,30.19-4.89,4.61-10.66,7.35-17.57,7.11a18.87,18.87,0,0,1-18.06-13.91c-.49-1.67-1-3.35-1.55-5.34-1.93,3.63-3.61,6.87-5.35,10.06-3.13,5.75-7.61,9.2-14.53,8.3s-10.76-5.72-12.68-11.89c-1.34-4.33-1.72-9-2.57-13.65-2.13,2.9-4.06,5.76-6.23,8.43a26.12,26.12,0,0,1-15.53,9.25c-2.35.48-4.53,1.84-6.76,2.84-3.63,1.62-7.16,3.48-10.87,4.83-2,.73-4.79.69-5.73-1.64a21.5,21.5,0,0,1-1.28-8.06c0-.77,2.16-2,3.45-2.19a90.92,90.92,0,0,1,9.19-.56c3.21-3.93,4.34-9,5.55-14A64.54,64.54,0,0,0,432.33,108a12.49,12.49,0,0,0-1.3-4.74c-1.4-2.61-4.71-3.27-7.28-.89a30.93,30.93,0,0,0-6.59,8.55c-4.39,8.74-6.15,18.25-6.69,27.93-1.19,21.27-2.1,42.56-3.31,63.83a65.65,65.65,0,0,1-2,11.76,6.42,6.42,0,0,1-2.76,3.27c-3,2-6.23,3.72-9.43,5.44a33.77,33.77,0,0,1-4.5,1.54,63,63,0,0,1,0-6.53c1.36-11.73,2.86-23.45,4.19-35.18.69-6.11,1.16-12.24,1.65-18.37.89-11.26,1.73-22.53,2.67-34.89-1.84,2.54-3.11,4.29-4.37,6.06-4.54,6.38-10.46,10.53-18.33,11.88-2,.35-3.88,1.69-5.81,2.58-3.6,1.66-7.08,3.76-10.84,4.88-4.41,1.31-9.33-3.94-7.94-8.36a5.93,5.93,0,0,1,3.8-3.31c3-.67,6.23-.55,9.81-.79a38,38,0,0,0,5.34-15c.79-6.42,1.36-12.87,1.56-19.32.08-2.67-.13-6-3.56-7s-5.94.91-7.64,3.5a56,56,0,0,0-5.64,10.47,79.85,79.85,0,0,0-5,25.27c-.86,19.29-2,38.57-3,57.86-.2,3.81-.69,7.61-1,11.43-.35,4.51-1.94,8-6.82,9.21-1.53.39-2.83,1.67-4.25,2.52-1.66,1-3.34,2-4.75,2.84-2.62-1.1-2.74-2.7-2.48-4.73,2.13-16.82,4.38-33.62,6.16-50.48,1.12-10.58,1.48-21.25,2.2-31.87.18-2.65.43-5.29.74-9.09-2.36,5.38-4.21,9.81-6.26,14.15a59.7,59.7,0,0,1-4,6.89c-6.33,9.75-19.38,7.42-24.16-1.76a26.6,26.6,0,0,1-3.36-12.9c.25-10.31.57-20.62,1.16-30.92.25-4.37,3.22-7.6,6.16-10.56C307.44,90.36,310.18,87.45,314.66,86.61Zm194.88,43a35.33,35.33,0,0,0,9.57-13.75,25.07,25.07,0,0,0,1.12-9.25,5.53,5.53,0,0,0-4.6-5.67C508.93,105,505.8,119.12,509.54,129.61Z"/><path d="M222.75,112l-5,1.67c-.74,12.6-1.41,25-2.21,37.49-.95,15-5.31,28.45-17.59,38.16a79.33,79.33,0,0,1-9.62,6.21,20.55,20.55,0,0,1-4.49,1.37c-2.13-3.41.08-4.8,1.87-6.15a22.66,22.66,0,0,0,8.94-14.49,107.32,107.32,0,0,0,1.79-12.85c.86-14.29,1.49-28.6,2.19-42.9,0-.5-.07-1-.15-2.11-1.72,0-3.47-.06-5.21,0-7.88.34-15.66,0-23-3.16-6.85-2.91-12.23-7.25-14.74-14.61-3.13-9.19.59-22.71,15.35-23.53,7.69-.43,14.84,1.52,21.83,4.37,2.46,1,4.84,2.19,7.95,3.6a48.74,48.74,0,0,0,.89-5.32c1-19.79,2-39.57,3-59.36.31-6.11,1.65-7.37,7.74-8.12a17.59,17.59,0,0,0,4.5-1.65c2.23-1,4.43-2,7.53-3.42.92,8.21-.69,15.54-.92,22.86-.22,7.48-1.18,14.93-1.67,22.41-.48,7.3-.7,14.63-1.17,21.94s-1.11,14.9-1.67,22.28c3.46,4.26,7.41,5.35,12.8,3.71,10.18-3.1,20.57-5.51,30.86-8.22,1.27-.34,2.5-.8,4.29-1.37.54-7.28,1.11-14.54,1.62-21.81q1.91-27.39,3.76-54.77c.21-3.14.82-5.49,4.33-7s6.14-4.37,9.35-6.36,5.62-.7,5.56,3.1c-.08,4.65-.63,9.3-1,13.94-1.24,15.42-2.55,30.83-3.71,46.25-.51,6.79-.73,13.6-1.11,21l9.48-3c.2,1.72.36,3.06.56,4.86L285,91.9c-.44,4.82-1,9.91-1.35,15-1.14,14.92-2.2,29.85-3.32,44.77-.18,2.36-.51,4.69-3.11,5.8s-4.94,0-6.8-1.77c-6-5.79-11.68-11.87-17.84-17.45C242.78,129.32,232.66,120.7,222.75,112Zm43.34-13.87-31.41,10.23L264,133C264.73,121.09,265.39,110.06,266.09,98.16Zm-65.76-1.79a41.3,41.3,0,0,0-15.22-6.48,14,14,0,0,0-3-.29c-3.67,0-6.83,1.94-7.38,4.75-.68,3.55,1.38,6.09,4,7.94,6.3,4.44,13.43,4.54,20.92,4C199.94,102.59,200.13,99.5,200.33,96.37Z"/><path d="M112.48,6.52c-.19,2.87-.22,4.43-.4,6-1.88,16-4,32-5.6,48C104.7,78.7,103.27,97,102,115.21c-.4,5.92.28,11.92.55,17.88a8.39,8.39,0,0,0,.77,2.87c2.06,4.71,6.41,5.3,9.14,1a75.86,75.86,0,0,0,5-10.3c1.19-2.73,2.07-5.6,3.22-8.34.69-1.64,1.35-3.56,4.48-2.69a11.63,11.63,0,0,1-.31,3.49c-3.76,9.2-7.35,18.5-11.59,27.49-2.48,5.24-6.35,9.52-13.18,8.75s-10-5.14-12.09-11.05c-2.36-6.77-2.37-13.71-1.93-20.71A56.73,56.73,0,0,0,86,113c-3.09,5.6-6.1,11.24-9.27,16.78-4.92,8.6-11,16.25-19.08,22.12-9,6.53-18.84,9.46-30.07,7.59-14.24-2.36-23-12.94-25.94-26.29-5.24-24.09,2.14-45,17.24-63.49a115.67,115.67,0,0,1,15.2-15.06,41.85,41.85,0,0,1,12-6.94c10.78-4.08,21.14,2.64,22.51,14.11,1,8.44-1.37,16.09-5.23,23.45C55.49,100.41,44.2,112.74,31.55,124c-.75.66-1.51,1.3-2.23,2a3.36,3.36,0,0,0-.46.86c3.83,14,17.86,18.66,29,11,6.71-4.62,11.7-10.88,15.6-17.91,4-7.25,7.08-15.07,11.44-22.09,4.22-6.81,3.82-14.24,4.68-21.54,1.71-14.52,3.19-29.07,4.75-43.62.16-1.48.24-3,.37-4.47.4-4.62,1.81-8.71,5.49-11.87,2.26-1.95,4.15-4.33,6.42-6.28C108,8.84,109.75,8.11,112.48,6.52ZM25.27,116.71c7.82-7.8,13.5-15.78,17.47-25a28.05,28.05,0,0,0,1.9-14.13,13.24,13.24,0,0,0-4.53-8.62c-2.58-2.36-5.2-2.5-7.35.24a37.36,37.36,0,0,0-5.93,10.18C22.65,91.22,22.8,103.4,25.27,116.71Z"/><path d="M308.93,61.79c-3.95-5.07-5.9-11.18-8.42-17.38a97,97,0,0,1,14-16.18c1.37,2.69,2.44,4.65,3.38,6.66,1.69,3.59,3.47,7.15,4.86,10.86.5,1.34.61,3.67-.19,4.51-3.74,4-7.84,7.54-11.86,11.21C310.42,61.75,309.78,61.65,308.93,61.79Z"/><path d="M471.21,62.81c-3.24-6.25-6.26-11.5-7.77-17.43a4.18,4.18,0,0,1,.86-3.2C467.81,38,471.47,34,475.13,29.9c.39-.43,1.13-.54,2.3-1.06l8.82,19.32C482.51,53.8,477.6,58.2,471.21,62.81Z"/><path class="a" d="M509.54,129.61c-3.74-10.49-.61-24.63,6.09-28.67a5.53,5.53,0,0,1,4.6,5.67,25.07,25.07,0,0,1-1.12,9.25A35.33,35.33,0,0,1,509.54,129.61Z"/><path class="a" d="M266.09,98.16c-.7,11.9-1.36,22.93-2.07,34.87l-29.34-24.64Z"/><path class="a" d="M200.33,96.37c-.2,3.13-.39,6.22-.63,9.91-7.49.55-14.62.45-20.92-4-2.62-1.85-4.68-4.39-4-7.94.55-2.81,3.71-4.71,7.38-4.75a14,14,0,0,1,3,.29A41.3,41.3,0,0,1,200.33,96.37Z"/><path class="a" d="M25.27,116.71c-2.47-13.31-2.62-25.49,1.56-37.35a37.36,37.36,0,0,1,5.93-10.18c2.15-2.74,4.77-2.6,7.35-.24a13.24,13.24,0,0,1,4.53,8.62,28.05,28.05,0,0,1-1.9,14.13C38.77,100.93,33.09,108.91,25.27,116.71Z"/></svg>